<svg width="44" height="44" viewBox="0 0 44 44" fill="none" xmlns="http://www.w3.org/2000/svg">
<path d="M14.6667 7.33325V26.0039C14.0796 25.7866 13.4593 25.6725 12.8333 25.6666C11.7455 25.6666 10.6822 25.9892 9.77769 26.5935C8.87322 27.1978 8.16828 28.0568 7.75199 29.0618C7.33571 30.0668 7.22679 31.1727 7.43901 32.2396C7.65123 33.3065 8.17505 34.2865 8.94424 35.0557C9.71343 35.8249 10.6934 36.3487 11.7603 36.5609C12.8272 36.7731 13.9331 36.6642 14.9381 36.2479C15.9431 35.8316 16.8021 35.1267 17.4064 34.2222C18.0108 33.3177 18.3333 32.2544 18.3333 31.1666V12.8333H31.1667V20.5039C30.5796 20.2866 29.9593 20.1725 29.3333 20.1666C28.2455 20.1666 27.1822 20.4892 26.2777 21.0935C25.3732 21.6979 24.6683 22.5568 24.252 23.5618C23.8357 24.5668 23.7268 25.6727 23.939 26.7396C24.1512 27.8065 24.6751 28.7865 25.4442 29.5557C26.2134 30.3249 27.1934 30.8487 28.2603 31.0609C29.3272 31.2731 30.4331 31.1642 31.4381 30.7479C32.4431 30.3316 33.3021 29.6267 33.9064 28.7222C34.5108 27.8178 34.8333 26.7544 34.8333 25.6666V7.33325H14.6667Z" fill="black"/>
</svg>
