<svg width="67" height="72" viewBox="0 0 67 72" fill="none" xmlns="http://www.w3.org/2000/svg">
<path d="M33.5 30.9716C32.2278 30.9716 31.0077 31.5138 30.1081 32.4788C29.2085 33.4438 28.7031 34.7527 28.7031 36.1174C28.7031 37.4822 29.2085 38.791 30.1081 39.756C31.0077 40.7211 32.2278 41.2632 33.5 41.2632C34.7722 41.2632 35.9922 40.7211 36.8918 39.756C37.7914 38.791 38.2968 37.4822 38.2968 36.1174C38.2968 34.7527 37.7914 33.4438 36.8918 32.4788C35.9922 31.5138 34.7722 30.9716 33.5 30.9716ZM33.5 44.6937C31.3796 44.6937 29.3461 43.7902 27.8469 42.1818C26.3476 40.5734 25.5053 38.392 25.5053 36.1174C25.5053 33.8428 26.3476 31.6614 27.8469 30.053C29.3461 28.4447 31.3796 27.5411 33.5 27.5411C35.6203 27.5411 37.6538 28.4447 39.1531 30.053C40.6524 31.6614 41.4947 33.8428 41.4947 36.1174C41.4947 38.392 40.6524 40.5734 39.1531 42.1818C37.6538 43.7902 35.6203 44.6937 33.5 44.6937ZM33.5 23.2529C25.5053 23.2529 18.6778 28.5874 15.9116 36.1174C18.6778 43.6474 25.5053 48.9819 33.5 48.9819C41.4947 48.9819 48.3221 43.6474 51.0883 36.1174C48.3221 28.5874 41.4947 23.2529 33.5 23.2529Z" fill="black"/>
</svg>
