<svg width="35" height="30" viewBox="0 0 35 30" fill="none" xmlns="http://www.w3.org/2000/svg">
<path d="M33.75 0.668703H24.8125C22.8945 0.668703 21.0195 1.2379 19.4062 2.3117L17.5 3.57523L15.5938 2.3117C13.9821 1.2381 12.105 0.667643 10.1875 0.668703H1.25C0.558594 0.668703 0 1.24597 0 1.96049V24.8897C0 25.6042 0.558594 26.1815 1.25 26.1815H10.1875C12.1055 26.1815 13.9805 26.7507 15.5938 27.8245L17.3281 28.979C17.3789 29.0113 17.4375 29.0315 17.4961 29.0315C17.5547 29.0315 17.6133 29.0154 17.6641 28.979L19.3984 27.8245C21.0156 26.7507 22.8945 26.1815 24.8125 26.1815H33.75C34.4414 26.1815 35 25.6042 35 24.8897V1.96049C35 1.24597 34.4414 0.668703 33.75 0.668703ZM13.2812 16.5133C13.2812 16.6788 13.1562 16.8161 13.0039 16.8161H5.74609C5.59375 16.8161 5.46875 16.6788 5.46875 16.5133V14.6967C5.46875 14.5312 5.59375 14.3939 5.74609 14.3939H13C13.1523 14.3939 13.2773 14.5312 13.2773 14.6967V16.5133H13.2812ZM13.2812 10.8617C13.2812 11.0272 13.1562 11.1645 13.0039 11.1645H5.74609C5.59375 11.1645 5.46875 11.0272 5.46875 10.8617V9.04514C5.46875 8.87963 5.59375 8.74238 5.74609 8.74238H13C13.1523 8.74238 13.2773 8.87963 13.2773 9.04514V10.8617H13.2812ZM29.5312 16.5133C29.5312 16.6788 29.4063 16.8161 29.2539 16.8161H21.9961C21.8437 16.8161 21.7188 16.6788 21.7188 16.5133V14.6967C21.7188 14.5312 21.8437 14.3939 21.9961 14.3939H29.25C29.4023 14.3939 29.5273 14.5312 29.5273 14.6967V16.5133H29.5312ZM29.5312 10.8617C29.5312 11.0272 29.4063 11.1645 29.2539 11.1645H21.9961C21.8437 11.1645 21.7188 11.0272 21.7188 10.8617V9.04514C21.7188 8.87963 21.8437 8.74238 21.9961 8.74238H29.25C29.4023 8.74238 29.5273 8.87963 29.5273 9.04514V10.8617H29.5312Z" fill="black"/>
</svg>
